# AST/ASF file generated using VICON BodyLanguage
# -----------------------------------------------
:version 1.10
:name VICON
:units
  mass 1.0
  length 0.45
  angle deg
:documentation
   .ast/.asf automatically generated from VICON data using
   VICON BodyBuilder and BodyLanguage model FoxedUp or BRILLIANT.MOD
:root
   order TX TY TZ RX RY RZ
   axis XYZ
   position 0 0 0  
   orientation 0 -0 0 
:bonedata
  begin
     id 1 
     name lhipjoint
     direction 0.500677 -0.737119 0.453848 
     length 2.34727 
     axis 0 -0 0  XYZ
  end
  begin
     id 2 
     name lfemur
     direction 0.34202 -0.939693 0  
     length 7.53653  
     axis 0 -0 20  XYZ
    dof rx ry rz
    limits (-160.0 20.0)
           (-70.0 70.0)
           (-60.0 70.0)
  end
  begin
     id 3 
     name ltibia
     direction 0.34202 -0.939693 0   
     length 6.85572   
     axis 0 -0 20   XYZ
    dof rx
    limits (-10.0 170.0)
  end
  begin
     id 4 
     name lfoot
     direction 0.155313 -0.426718 0.890949   
     length 2.18324   
     axis -90 -1.13533e-015 20   XYZ
    dof rx rz
    limits (-45.0 90.0)
           (-70.0 20.0)
  end
  begin
     id 5 
     name ltoes
     direction 1.53474e-011 -4.21647e-011 1   
     length 1.06748   
     axis -90 -1.13533e-015 20   XYZ
    dof rx
    limits (-90.0 20.0)
  end
  begin
     id 6 
     name rhipjoint
     direction -0.632471 -0.659587 0.406111   
     length 2.62319  
     axis 0 -0 0  XYZ 
  end
  begin
     id 7 
     name rfemur
     direction -0.34202 -0.939693 0   
     length 7.21735   
     axis 0 -0 -20   XYZ
    dof rx ry rz
    limits (-160.0 20.0)
           (-70.0 70.0)
           (-70.0 60.0)
  end
  begin
     id 8 
     name rtibia
     direction -0.34202 -0.939693 0   
     length 7.02558   
     axis 0 -0 -20   XYZ
    dof rx
    limits (-10.0 170.0)
 end
 begin
     id 9 
     name rfoot
     direction -0.16057 -0.441164 0.882945   
     length 2.10014  
     axis -90 1.13533e-015 -20   XYZ
    dof rx rz
    limits (-45.0 90.0)
           (-20.0 70.0)
  end
  begin
     id 10 
     name rtoes
     direction -1.53553e-011 -4.2192e-011 1   
     length 1.02554   
     axis -90 1.13533e-015 -20   XYZ
    dof rx
    limits (-90.0 20.0)
  end
  begin
     id 11 
     name lowerback
     direction 0.0401429 0.998861 -0.0258085   
     length 1.80848   
     axis 0 -0 0   XYZ
    dof rx ry rz
    limits (-20.0 45.0)
           (-30.0 30.0)
           (-30.0 30.0)
  end
  begin
     id 12 
     name upperback
     direction -0.0130978 0.999914 -0.000352645   
     length 1.8116   
     axis 0 -0 0   XYZ
    dof rx ry rz
    limits (-20.0 45.0)
           (-30.0 30.0)
           (-30.0 30.0)
  end
  begin
     id 13 
     name thorax
     direction -0.0300198 0.999453 0.0138573   
     length 1.81778   
     axis 0 -0 0   XYZ
    dof rx ry rz
    limits (-20.0 45.0)
           (-30.0 30.0)
           (-30.0 30.0)
  end
  begin
     id 14 
     name lowerneck
     direction -0.0401726 0.999191 -0.00173647   
     length 2.10594   
     axis 0 -0 0   XYZ
    dof rx ry rz
    limits (-20.0 45.0)
           (-30.0 30.0)
           (-30.0 30.0)
  end
  begin
     id 15 
     name upperneck
     direction 0.0119835 0.998501 0.0534085   
     length 2.07325   
     axis 0 -0 0   XYZ
    dof rx ry rz
    limits (-20.0 45.0)
           (-30.0 30.0)
           (-30.0 30.0)
  end
  begin
     id 16
     name head
     direction 0.00628309 0.999826 0.0175921  
     length 2.15096  
     axis 0 -0 0   XYZ
    dof rx ry rz
    limits (-20.0 45.0)
           (-30.0 30.0)
           (-30.0 30.0)
  end
  begin
     id 17 
     name lclavicle
     direction 0.895501 0.429681 -0.115981  
     length 4.18092  
     axis 0 -0 0   XYZ
    dof ry rz
    limits (-20.0 10.0)
           (0.0 20.0)
  end
  begin
     id 18 
     name lhumerus
     direction 1 -4.48961e-011 -3.38433e-028   
     length 5.77237   
     axis 180 -30 -90   XYZ
    dof rx ry rz
    limits (-60.0 90.0)
           (-90.0 90.0)
           (-90.0 90.0)
  end
  begin
     id 19
     name lradius
     direction 1 -4.4901e-011 1.11983e-026   
     length 2.91878   
     axis 180 -30 -90   XYZ
    dof rx
    limits (-10.0 170.0)
  end
  begin
     id 20
     name lwrist
     direction 1 -4.48934e-011 1.88176e-026   
     length 1.45939   
     axis -1.23311e-014 90 90   XYZ
    dof ry
    limits (-180.0 0.0)
 end
  begin
     id 21 
     name lhand
     direction 1 -4.4895e-011 3.76352e-026   
     length 1.06566   
     axis -2.40147e-014 90 90   XYZ
    dof rx rz
    limits (-90.0 90.0)
           (-45.0 45.0)
  end
  begin
     id 22 
     name lfingers
     direction 1 -4.49005e-011 7.52705e-026   
     length 0.859162   
     axis -4.80295e-014 90 90   XYZ
    dof rx
    limits (0.0 90.0)
  end
  begin
     id 23
     name lthumb
     direction 0.707107 -6.34885e-011 0.707107   
     length 1.23359   
     axis -90 45 -9.86935e-015   XYZ
    dof rx rz
    limits (-45.0 45.0)
           (-45.0 45.0)
  end
  begin
     id 24 
     name rclavicle
     direction -0.91006 0.40451 -0.0903492   
     length 4.23293  
     axis 0 -0 0   XYZ 
    dof ry rz
    limits (-10.0 20.0)
           (-20.0 0.0)
  end
  begin
     id 25 
     name rhumerus
     direction -1 -4.4897e-011 1.7415e-027  
     length 5.49854   
     axis 180 30 90   XYZ
    dof rx ry rz
    limits (-90.0 60.0)
           (-90.0 90.0)
           (-90.0 90.0)
  end
  begin
     id 26 
     name rradius
     direction -1 -4.48963e-011 1.21259e-026   
     length 3.1186   
     axis 180 30 90   XYZ
    dof rx
    limits (-10.0 170.0)
  end
  begin
     id 27 
     name rwrist
     direction -1 -4.48967e-011 1.88176e-026   
     length 1.5593   
     axis -1.23311e-014 -90 -90   XYZ
    dof ry
    limits (-180.0 0.0)
  end
  begin
     id 28
     name rhand
     direction -1 -4.4895e-011 3.76352e-026   
     length 0.71207   
     axis -2.40147e-014 -90 -90   XYZ
    dof rx rz
    limits (-90.0 90.0)
           (-45.0 45.0)
  end
  begin
     id 29
     name rfingers
     direction -1 -4.49005e-011 7.52705e-026   
     length 0.574089   
     axis -4.80295e-014 -90 -90   XYZ
    dof rx
    limits (0.0 90.0)
  end
  begin
     id 30
     name rthumb
     direction -0.707107 -6.34982e-011 0.707107   
     length 0.824281   
     axis -90 -45 9.86935e-015   XYZ
    dof rx rz
    limits (-45.0 45.0)
           (-45.0 45.0)
  end
:hierarchy
  begin
    root lhipjoint rhipjoint lowerback
    lhipjoint lfemur
    lfemur ltibia
    ltibia lfoot
    lfoot ltoes
    rhipjoint rfemur
    rfemur rtibia
    rtibia rfoot
    rfoot rtoes
    lowerback upperback
    upperback thorax
    thorax lowerneck lclavicle rclavicle
    lowerneck upperneck
    upperneck head
    lclavicle lhumerus
    lhumerus lradius
    lradius lwrist
    lwrist lhand lthumb
    lhand lfingers
    rclavicle rhumerus
    rhumerus rradius
    rradius rwrist
    rwrist rhand rthumb
    rhand rfingers
  end

#!OML:ASF C:\ViconDB\ViconDB\414\Spring2016\042216\male.ASF
:FULLY-SPECIFIED
:DEGREES
65
root -27.7471 17.2362 11.4244 -172.921 83.8518 186.051
lowerback -1.8376 -1.62043 4.63699
upperback -1.08172 -2.22142 -0.783688
thorax -0.290411 -1.13574 -3.43556
lowerneck -2.38024 8.32415 0.373202
upperneck -0.204551 11.2109 -6.06289
head 0.723305 5.58784 -1.76279
rclavicle -5.10628e-015 -5.889e-015
rhumerus -29.9327 -3.36738 -94.4477
rradius 25.4387
rwrist 32.7534
rhand 14.2235 -20.2195
rfingers 7.12502
rthumb 39.1202 -45.705
lclavicle -5.10628e-015 -5.889e-015
lhumerus -35.5194 14.045 87.704
lradius 30.6354
lwrist -16.0088
lhand -9.80516 15.0826
lfingers 7.12502
lthumb 16.1713 44.428
rfemur 2.22041 16.6656 21.855
rtibia 19.9134
rfoot -25.0665 -20.4522
rtoes -9.22334
lfemur -8.11831 -0.816357 -21.2738
ltibia 26.7671
lfoot -25.4876 12.6699
ltoes -10.0987
66
root -27.7463 17.2337 11.4207 -172.959 83.82 186.037
lowerback -1.78449 -1.62642 4.54851
upperback -1.08147 -2.22555 -0.721108
thorax -0.31419 -1.13762 -3.31962
lowerneck -2.44949 8.27995 0.18961
upperneck -0.161369 11.1589 -5.97759
head 0.729996 5.56065 -1.70356
rclavicle -1.12236e-014 8.10048e-015
rhumerus -29.9564 -3.35063 -94.3271
rradius 25.409
rwrist 32.6916
rhand 14.0275 -20.2642
rfingers 7.12502
rthumb 38.9355 -45.8026
lclavicle -1.12236e-014 8.10048e-015
lhumerus -35.5399 14.219 87.7524
lradius 30.649
lwrist -16.003
lhand -9.90149 15.0509
lfingers 7.12502
lthumb 16.0785 44.4038
rfemur 2.3161 16.8998 21.9087
rtibia 19.8535
rfoot -25.1122 -20.6621
rtoes -8.92057
lfemur -8.10841 -0.770315 -21.2802
ltibia 26.8046
lfoot -25.5437 12.5726
ltoes -9.82217
67
root -27.7441 17.2301 11.4161 -172.941 83.8059 186.08
lowerback -1.7374 -1.62999 4.51403
upperback -1.0758 -2.22786 -0.723964
thorax -0.333688 -1.13903 -3.30178
lowerneck -2.40998 8.27171 0.200642
upperneck -0.321297 11.1427 -6.10016
head 0.681417 5.55672 -1.74961
rclavicle -2.86498e-014 4.52235e-015
rhumerus -29.9809 -3.31746 -94.3441
rradius 25.3878
rwrist 32.6387
rhand 14.0737 -19.7543
rfingers 7.12502
rthumb 38.979 -45.2803
lclavicle -2.86498e-014 4.52235e-015
lhumerus -35.5449 14.2782 87.7588
lradius 30.6983
lwrist -15.8057
lhand -9.8152 15.3746
lfingers 7.12502
lthumb 16.1616 44.7208
rfemur 2.40873 17.175 21.9732
rtibia 19.8179
rfoot -25.2803 -20.8836
rtoes -8.92204
lfemur -8.06902 -0.748405 -21.2963
ltibia 26.8241
lfoot -25.6343 12.5728
ltoes -9.83229
68
root -27.7388 17.2258 11.4084 -173.113 83.8396 185.97
lowerback -1.70072 -1.58512 4.53958
upperback -1.05764 -2.16732 -0.749121
thorax -0.332041 -1.10876 -3.34083
lowerneck -2.40706 8.20406 0.199136
upperneck -0.377457 11.0521 -6.18227
head 0.665611 5.51294 -1.77854
rclavicle 3.34743e-014 2.1096e-014
rhumerus -30.0345 -3.29926 -94.3151
rradius 25.3724
rwrist 32.618
rhand 14.1132 -19.7238
rfingers 7.12502
rthumb 39.0163 -45.2392
lclavicle 3.34743e-014 2.1096e-014
lhumerus -35.5871 14.374 87.7396
lradius 30.7189
lwrist -15.845
lhand -9.79914 15.8275
lfingers 7.12502
lthumb 16.1771 45.1725
rfemur 2.54832 17.3873 21.9786
rtibia 19.7645
rfoot -25.2368 -21.0259
rtoes -9.09486
lfemur -7.97855 -0.894596 -21.3651
ltibia 26.8576
lfoot -25.7105 12.7484
ltoes -9.93258
69
root -27.7346 17.2253 11.4029 -173.854 83.8337 185.205
lowerback -1.70982 -1.56774 4.43162
upperback -1.06163 -2.14306 -0.769823
thorax -0.32547 -1.09603 -3.30161
lowerneck -2.44692 8.14708 0.0580127
upperneck -0.396631 10.976 -6.04438
head 0.646466 5.4753 -1.71314
rclavicle 5.69409e-015 -2.13694e-015
rhumerus -30.0801 -2.96862 -94.4504
rradius 25.4388
rwrist 32.2112
rhand 13.9901 -20.9804
rfingers 7.12502
rthumb 38.9002 -46.5289
lclavicle 5.69409e-015 -2.13694e-015
lhumerus -35.6026 14.4847 87.7103
lradius 30.7217
lwrist -15.9233
lhand -9.78078 15.4893
lfingers 7.12502
lthumb 16.1947 44.8328
rfemur 2.60558 17.5203 21.894
rtibia 19.6762
rfoot -25.2901 -21.1903
rtoes -9.29363
lfemur -8.01955 -0.923781 -21.4746
ltibia 26.9173
lfoot -25.7674 12.7343
ltoes -9.68633
70
root -27.7296 17.2259 11.397 -173.006 83.7973 186.013
lowerback -1.72822 -1.5323 4.52697
upperback -1.07355 -2.0976 -0.794862
thorax -0.327904 -1.07414 -3.38102
lowerneck -2.44264 8.10207 0.0636043
upperneck -0.521378 10.9092 -6.05216
head 0.605411 5.44481 -1.7212
rclavicle -1.21507e-014 7.30534e-015
rhumerus -30.0506 -3.36817 -94.3285
rradius 25.2281
rwrist 32.6086
rhand 13.895 -19.9062
rfingers 7.12502
rthumb 38.8105 -45.4803
lclavicle -1.21507e-014 7.30534e-015
lhumerus -35.5958 14.45 87.66
lradius 30.7099
lwrist -15.9567
lhand -9.81402 15.743
lfingers 7.12502
lthumb 16.1627 45.0892
rfemur 2.61264 17.3059 21.9189
rtibia 19.5689
rfoot -25.2117 -21.0065
rtoes -9.37294
lfemur -8.11127 -0.730004 -21.3792
ltibia 26.9965
lfoot -25.8321 12.524
ltoes -9.4705
71
root -27.7262 17.227 11.3903 -172.277 83.7235 186.699
lowerback -1.72765 -1.49736 4.62406
upperback -1.08642 -2.05196 -0.816148
thorax -0.341665 -1.05248 -3.45695
lowerneck -2.48979 8.03481 0.0710889
upperneck -0.560654 10.8176 -6.04886
head 0.598324 5.39921 -1.72221
rclavicle -7.82404e-015 -7.60351e-015
rhumerus -30.0894 -3.50583 -94.2945
rradius 25.1775
rwrist 32.7077
rhand 13.9146 -20.3434
rfingers 7.12502
rthumb 38.829 -45.9122
lclavicle -7.82404e-015 -7.60351e-015
lhumerus -35.5842 14.4538 87.622
lradius 30.7577
lwrist -15.7019
lhand -9.754 15.6379
lfingers 7.12502
lthumb 16.2205 44.9793
rfemur 2.67542 17.6128 22.0505
rtibia 19.4571
rfoot -25.5579 -21.2676
rtoes -8.8681
lfemur -8.19491 -0.790094 -21.3025
ltibia 27.0821
lfoot -25.914 12.4498
ltoes -9.4788
72
root -27.7214 17.2259 11.3833 -172.708 83.6964 186.259
lowerback -1.70882 -1.50667 4.51581
upperback -1.085 -2.06204 -0.784567
thorax -0.346467 -1.05686 -3.36307
lowerneck -2.50962 7.9976 -0.0570595
upperneck -0.663167 10.7696 -6.10718
head 0.564319 5.37818 -1.72228
rclavicle 2.05727e-014 2.78299e-015
rhumerus -30.142 -3.2878 -94.2631
rradius 25.1615
rwrist 32.688
rhand 13.905 -20.2666
rfingers 7.12502
rthumb 38.82 -45.838
lclavicle 2.05727e-014 2.78299e-015
lhumerus -35.6074 14.7221 87.6315
lradius 30.7826
lwrist -15.8146
lhand -9.80199 15.4241
lfingers 7.12502
lthumb 16.1743 44.7693
rfemur 2.77316 17.643 21.9955
rtibia 19.3267
rfoot -25.5826 -21.3341
rtoes -8.76655
lfemur -8.21992 -0.729201 -21.3796
ltibia 27.1867
lfoot -26.036 12.3773
ltoes -9.18533
73
root -27.718 17.2222 11.3777 -172.504 83.6216 186.445
lowerback -1.69036 -1.48661 4.70173
upperback -1.08897 -2.03716 -0.98028
thorax -0.372814 -1.04721 -3.6688
lowerneck -2.52605 7.93513 0.302338
upperneck -0.725617 10.672 -6.18754
head 0.570142 5.32845 -1.80866
rclavicle 5.42931e-015 6.75868e-015
rhumerus -30.2207 -3.33782 -94.5721
rradius 25.2037
rwrist 32.5992
rhand 13.9364 -19.6843
rfingers 7.12502
rthumb 38.8496 -45.2472
lclavicle 5.42931e-015 6.75868e-015
lhumerus -35.6006 14.4492 87.4199
lradius 30.8458
lwrist -15.5929
lhand -9.90763 15.6355
lfingers 7.12502
lthumb 16.0726 44.9889
rfemur 2.8532 17.7527 22.0474
rtibia 19.2255
rfoot -25.4737 -21.5332
rtoes -8.9697
lfemur -8.26614 -0.700704 -21.3605
ltibia 27.2707
lfoot -26.1721 12.2916
ltoes -9.45648
74
root -27.7143 17.2197 11.3696 -171.817 83.5166 187.117
lowerback -1.61281 -1.50949 4.6812
upperback -1.11999 -2.06263 -0.872731
thorax -0.445878 -1.06165 -3.54337
lowerneck -2.51995 7.89279 0.0780638
upperneck -0.818929 10.6198 -6.21704
head 0.527194 5.30622 -1.78502
rclavicle 1.11785e-014 1.78906e-015
rhumerus -30.2244 -3.4657 -94.3719
rradius 25.0874
rwrist 32.8155
rhand 14.0065 -19.5798
rfingers 7.12502
rthumb 38.9157 -45.1239
lclavicle 1.11785e-014 1.78906e-015
lhumerus -35.6353 14.6152 87.5537
lradius 30.9368
lwrist -15.4188
lhand -9.90313 15.7497
lfingers 7.12502
lthumb 16.0769 45.1027
rfemur 2.93395 17.959 22.177
rtibia 19.1371
rfoot -25.7956 -21.7517
rtoes -8.59103
lfemur -8.30827 -0.692898 -21.303
ltibia 27.3492
lfoot -26.2494 12.2692
ltoes -9.55143
75
root -27.7097 17.2179 11.3615 -171.662 83.4276 187.237
lowerback -1.55743 -1.51494 4.64447
upperback -1.14122 -2.06623 -0.861987
thorax -0.497327 -1.0648 -3.50956
lowerneck -2.50261 7.8144 0.010649
upperneck -0.973066 10.5092 -6.22075
head 0.468972 5.25546 -1.78207
rclavicle 2.49816e-014 6.85807e-015
rhumerus -30.239 -3.53498 -94.3302
rradius 25.0304
rwrist 32.8216
rhand 14.0598 -19.5658
rfingers 7.12502
rthumb 38.9659 -45.0956
lclavicle 2.49816e-014 6.85807e-015
lhumerus -35.6476 14.6557 87.5529
lradius 30.9926
lwrist -15.4924
lhand -9.99559 15.9614
lfingers 7.12502
lthumb 15.9879 45.3217
rfemur 2.99388 18.0686 22.2135
rtibia 19.0597
rfoot -25.9271 -21.8777
rtoes -8.30066
lfemur -8.36267 -0.647524 -21.3008
ltibia 27.415
lfoot -26.3603 12.1502
ltoes -9.33095
76
root -27.7031 17.2157 11.35 -171.957 83.2876 186.934
lowerback -1.52848 -1.51624 4.68495
upperback -1.13361 -2.06756 -0.945461
thorax -0.510552 -1.06644 -3.61776
lowerneck -2.57557 7.77319 0.0945526
upperneck -1.02828 10.4509 -6.26596
head 0.469475 5.226 -1.80924
rclavicle -1.52536e-014 2.98177e-016
rhumerus -30.2911 -3.50445 -94.4074
rradius 25.0478
rwrist 32.8106
rhand 14.1477 -20.1058
rfingers 7.12502
rthumb 39.0488 -45.6118
lclavicle -1.52536e-014 2.98177e-016
lhumerus -35.6164 14.5177 87.5195
lradius 31.0115
lwrist -15.4327
lhand -9.91051 16.087
lfingers 7.12502
lthumb 16.0698 45.4407
rfemur 3.10184 18.0716 22.1955
rtibia 18.97
rfoot -26.0243 -21.9879
rtoes -8.32225
lfemur -8.39008 -0.683382 -21.3544
ltibia 27.4889
lfoot -26.4417 12.0342
ltoes -9.39843
77
root -27.6927 17.2162 11.3421 -172.818 83.2241 186.029
lowerback -1.56611 -1.52631 4.4633
upperback -1.15023 -2.07957 -0.904022
thorax -0.497777 -1.07061 -3.45128
lowerneck -2.46978 7.73428 -0.153381
upperneck -1.23044 10.3957 -6.28029
head 0.374064 5.2071 -1.78404
rclavicle 4.36394e-014 -4.96962e-015
rhumerus -30.4255 -3.24366 -94.3748
rradius 25.1006
rwrist 32.6421
rhand 13.98 -20.3683
rfingers 7.12502
rthumb 38.8907 -45.9196
lclavicle 4.36394e-014 -4.96962e-015
lhumerus -35.6414 14.7203 87.581
lradius 30.999
lwrist -15.6226
lhand -10.0603 16.0396
lfingers 7.12502
lthumb 15.9256 45.4048
rfemur 3.17725 18.09 22.0731
rtibia 18.8613
rfoot -25.9135 -22.0112
rtoes -8.75453
lfemur -8.43741 -0.675454 -21.4875
ltibia 27.5721
lfoot -26.5648 11.8967
ltoes -9.28114
78
root -27.6881 17.2134 11.3338 -172.468 83.1163 186.357
lowerback -1.51146 -1.49993 4.43328
upperback -1.15282 -2.04153 -0.887077
thorax -0.525775 -1.05203 -3.41507
lowerneck -2.42885 7.65326 -0.263964
upperneck -1.44834 10.28 -6.30803
head 0.291353 5.15655 -1.78416
rclavicle -2.71652e-014 -7.7526e-015
rhumerus -30.4411 -3.28581 -94.3341
rradius 25.0453
rwrist 32.6713
rhand 13.8766 -20.4613
rfingers 7.12502
rthumb 38.7931 -46.0403
lclavicle -2.71652e-014 -7.7526e-015
lhumerus -35.6141 14.7648 87.6211
lradius 31.0567
lwrist -15.6656
lhand -9.94822 15.882
lfingers 7.12502
lthumb 16.0335 45.2386
rfemur 3.23721 18.0118 22.1049
rtibia 18.7626
rfoot -25.9123 -22.0424
rtoes -8.7255
lfemur -8.4958 -0.6848 -21.4561
ltibia 27.648
lfoot -26.6321 11.7988
ltoes -9.22505
